<?xml version="1.0" standalone="no"?>
<!DOCTYPE svg PUBLIC "-//W3C//DTD SVG 20010904//EN"
 "http://www.w3.org/TR/2001/REC-SVG-20010904/DTD/svg10.dtd">
<svg version="1.0" xmlns="http://www.w3.org/2000/svg"
 width="512.000000pt" height="512.000000pt" viewBox="0 0 512.000000 512.000000"
 preserveAspectRatio="xMidYMid meet">
<metadata>
Created by potrace 1.14, written by Peter Selinger 2001-2017
</metadata>
<g transform="translate(0.000000,512.000000) scale(0.100000,-0.100000)"
fill="#000000" stroke="none">
<path d="M450 4853 c-57 -41 -137 -102 -177 -135 l-73 -59 0 -2080 0 -2079
106 -84 c58 -46 146 -111 196 -145 l90 -61 1988 0 1988 0 89 60 c48 33 125 89
171 125 l82 65 0 2119 0 2120 -68 54 c-37 30 -106 82 -154 116 l-87 61 -2023
0 -2023 -1 -105 -76z"/>
</g>
</svg>
